<?xml version="1.0"?>
<svg xmlns="http://www.w3.org/2000/svg" height="512px" version="1.1" viewBox="-19 0 136 136.54819" width="512px" class=""><g><g id="surface1">
<path d="M 21.710938 27.703125 L 76.128906 27.703125 C 77.15625 27.703125 77.988281 26.867188 77.988281 25.839844 C 77.988281 24.808594 77.15625 23.972656 76.128906 23.972656 L 21.710938 23.972656 C 20.679688 23.972656 19.84375 24.808594 19.84375 25.839844 C 19.84375 26.867188 20.679688 27.703125 21.710938 27.703125 Z M 21.710938 27.703125 " data-original="#000000" class="active-path" data-old_color="#000000" fill="#5E4C5A"/>
<path d="M 0.273438 18.625 L 0.273438 130.699219 C 0.285156 133.925781 2.898438 136.539062 6.121094 136.546875 L 91.710938 136.546875 C 94.941406 136.539062 97.554688 133.925781 97.558594 130.699219 L 97.558594 18.625 C 97.554688 15.394531 94.941406 12.78125 91.710938 12.777344 L 63.289062 12.777344 C 62.351562 4.839844 55.160156 -0.835938 47.222656 0.101562 C 40.574219 0.882812 35.332031 6.128906 34.546875 12.777344 L 6.121094 12.777344 C 2.894531 12.78125 0.277344 15.394531 0.273438 18.625 Z M 93.816406 130.699219 C 93.816406 131.867188 92.871094 132.8125 91.703125 132.8125 L 6.121094 132.8125 C 4.953125 132.8125 4.007812 131.867188 4.007812 130.699219 L 4.007812 36.6875 L 93.832031 36.6875 Z M 48.917969 3.695312 C 54.207031 3.703125 58.695312 7.554688 59.519531 12.777344 L 38.367188 12.777344 C 39.183594 7.574219 43.648438 3.726562 48.917969 3.695312 Z M 91.710938 16.503906 C 92.882812 16.503906 93.832031 17.457031 93.832031 18.625 L 93.832031 32.953125 L 4.007812 32.953125 L 4.007812 18.625 C 4.007812 17.457031 4.953125 16.503906 6.121094 16.503906 Z M 91.710938 16.503906 " data-original="#000000" class="active-path" data-old_color="#000000" fill="#5E4C5A"/>
<path d="M 37.96875 57.25 L 82.085938 57.25 C 83.113281 57.25 83.949219 56.414062 83.949219 55.386719 C 83.949219 54.351562 83.113281 53.519531 82.085938 53.519531 L 37.96875 53.519531 C 36.9375 53.519531 36.105469 54.351562 36.105469 55.386719 C 36.105469 56.414062 36.9375 57.25 37.96875 57.25 Z M 37.96875 57.25 " data-original="#000000" class="active-path" data-old_color="#000000" fill="#5E4C5A"/>
<path d="M 37.96875 76.722656 L 82.085938 76.722656 C 83.113281 76.722656 83.949219 75.886719 83.949219 74.855469 C 83.949219 73.824219 83.113281 72.988281 82.085938 72.988281 L 37.96875 72.988281 C 36.9375 72.988281 36.105469 73.824219 36.105469 74.855469 C 36.105469 75.886719 36.9375 76.722656 37.96875 76.722656 Z M 37.96875 76.722656 " data-original="#000000" class="active-path" data-old_color="#000000" fill="#5E4C5A"/>
<path d="M 37.96875 96.179688 L 82.085938 96.179688 C 83.113281 96.179688 83.949219 95.339844 83.949219 94.3125 C 83.949219 93.28125 83.113281 92.445312 82.085938 92.445312 L 37.96875 92.445312 C 36.9375 92.445312 36.105469 93.28125 36.105469 94.3125 C 36.105469 95.339844 36.9375 96.179688 37.96875 96.179688 Z M 37.96875 96.179688 " data-original="#000000" class="active-path" data-old_color="#000000" fill="#5E4C5A"/>
<path d="M 37.96875 115.632812 L 82.085938 115.632812 C 83.113281 115.632812 83.949219 114.800781 83.949219 113.765625 C 83.949219 112.738281 83.113281 111.90625 82.085938 111.90625 L 37.96875 111.90625 C 36.9375 111.90625 36.105469 112.738281 36.105469 113.765625 C 36.105469 114.800781 36.9375 115.632812 37.96875 115.632812 Z M 37.96875 115.632812 " data-original="#000000" class="active-path" data-old_color="#000000" fill="#5E4C5A"/>
<path d="M 19.359375 58.292969 C 19.652344 58.710938 20.101562 58.988281 20.601562 59.066406 L 20.878906 59.066406 C 21.289062 59.066406 21.691406 58.925781 22.023438 58.667969 L 33.910156 49.378906 C 34.804688 48.859375 35.109375 47.71875 34.59375 46.828125 C 34.078125 45.933594 32.9375 45.628906 32.046875 46.148438 C 31.890625 46.234375 31.75 46.347656 31.625 46.476562 L 21.285156 54.566406 L 19.480469 51.992188 C 18.890625 51.148438 17.726562 50.9375 16.882812 51.53125 C 16.039062 52.121094 15.828125 53.285156 16.421875 54.128906 Z M 19.359375 58.292969 " data-original="#000000" class="active-path" data-old_color="#000000" fill="#5E4C5A"/>
<path d="M 19.359375 77.476562 C 19.652344 77.894531 20.101562 78.175781 20.601562 78.253906 L 20.878906 78.253906 C 21.289062 78.25 21.691406 78.109375 22.023438 77.851562 L 33.910156 68.558594 C 34.746094 67.949219 34.921875 66.78125 34.308594 65.949219 C 33.699219 65.121094 32.53125 64.941406 31.699219 65.558594 C 31.671875 65.578125 31.640625 65.601562 31.613281 65.625 L 21.285156 73.722656 L 19.480469 71.148438 C 19.019531 70.226562 17.898438 69.851562 16.980469 70.308594 C 16.058594 70.769531 15.683594 71.890625 16.144531 72.816406 C 16.21875 72.960938 16.308594 73.101562 16.421875 73.222656 Z M 19.359375 77.476562 " data-original="#000000" class="active-path" data-old_color="#000000" fill="#5E4C5A"/>
<path d="M 19.359375 96.714844 C 19.652344 97.128906 20.101562 97.40625 20.601562 97.484375 L 20.878906 97.484375 C 21.289062 97.484375 21.691406 97.34375 22.023438 97.085938 L 33.910156 87.792969 C 34.746094 87.179688 34.921875 86.011719 34.308594 85.183594 C 33.699219 84.351562 32.53125 84.179688 31.699219 84.789062 C 31.671875 84.8125 31.640625 84.832031 31.613281 84.855469 L 21.273438 92.929688 L 19.472656 90.355469 C 18.878906 89.511719 17.714844 89.304688 16.871094 89.894531 C 16.023438 90.488281 15.820312 91.652344 16.410156 92.496094 Z M 19.359375 96.714844 " data-original="#000000" class="active-path" data-old_color="#000000" fill="#5E4C5A"/>
<path d="M 19.359375 116.171875 C 19.652344 116.585938 20.101562 116.867188 20.601562 116.945312 L 20.878906 116.945312 C 21.289062 116.9375 21.691406 116.796875 22.023438 116.546875 L 33.910156 107.25 C 34.785156 106.703125 35.046875 105.546875 34.5 104.675781 C 33.945312 103.800781 32.792969 103.546875 31.921875 104.09375 C 31.816406 104.160156 31.714844 104.238281 31.625 104.328125 L 21.285156 112.414062 L 19.480469 109.839844 C 18.890625 108.992188 17.726562 108.789062 16.882812 109.378906 C 16.039062 109.96875 15.828125 111.132812 16.421875 111.976562 Z M 19.359375 116.171875 " data-original="#000000" class="active-path" data-old_color="#000000" fill="#5E4C5A"/>
</g></g> </svg>
