<svg id="Capa_1" enable-background="new 0 0 512 512" height="512" viewBox="0 0 512 512" width="512" xmlns="http://www.w3.org/2000/svg"><g><path d="m512 256c0 91.819-48.341 172.352-120.96 217.525-87.723-29.877-182.837-30.048-270.667-.491l-.117.043-.011.011c-72.224-45.259-120.245-125.568-120.245-217.088 0-141.387 114.613-256 256-256s256 114.613 256 256z" fill="#654baa"/><g><g><path d="m512 256c0 65.237-24.405 124.779-64.576 169.984-13.472 15.168-28.725 28.715-45.419 40.331-3.584 2.496-7.242 4.896-10.965 7.211-87.723-29.877-182.837-30.048-270.667-.491l-.117.043c-3.477-2.165-6.901-4.427-10.261-6.763-16.693-11.616-31.947-25.163-45.419-40.331-40.171-45.205-64.576-104.747-64.576-169.984 0-46.219 12.245-89.568 33.675-126.997 44.128 77.066 127.168 129.002 222.325 129.002s178.208-51.936 222.325-129.003c21.43 37.43 33.675 80.779 33.675 126.998z" fill="#513390"/></g></g><g><path d="m391.04 473.525c-39.179 24.373-85.419 38.464-134.965 38.475h-.075c-49.867 0-96.395-14.251-135.744-38.923.128-.171.256-.352.384-.523 10.645-14.027 33.995-9.995 47.211-21.632 9.973-8.768 11.2-23.488 13.963-36.48 5.301-24.864 23.755-28.213 42.571-40.288 11.648-7.467 17.867-17.163 17.867-31.264v-57.707h26.485v57.707c0 14.101 6.229 23.797 17.867 31.264 18.827 12.075 37.28 15.424 42.581 40.288 2.763 12.992 3.99 27.712 13.963 36.48 13.216 11.637 36.555 7.605 47.2 21.632.244.321.479.641.692.971z" fill="#fff"/><path d="m391.04 473.525c-39.179 24.373-85.419 38.464-134.965 38.475v-226.816h12.661v57.707c0 14.101 6.229 23.797 17.867 31.264 18.827 12.075 37.28 15.424 42.581 40.288 2.763 12.992 3.99 27.712 13.963 36.48 13.216 11.637 36.555 7.605 47.2 21.632.245.32.48.64.693.97z" fill="#eee"/><g><path d="m338.048 498.56c-25.728 8.715-53.301 13.429-81.973 13.44h-.288c-28.843-.021-56.576-4.821-82.443-13.653 3.947-2.133 7.552-4.682 9.547-8.587 2.389-4.672 2.006-10.581 5.174-14.763 5.333-7.008 17.003-4.992 23.616-10.816 4.981-4.384 5.589-11.744 6.976-18.24 1.323-6.219 4.299-9.75 8.128-12.48 5.643-4.032 12.512-5.995 19.445-5.995h18.539c6.933 0 13.803 1.963 19.445 5.995 3.819 2.731 6.795 6.261 8.128 12.48 1.387 6.496 1.995 13.856 6.976 18.24 6.613 5.824 18.283 3.808 23.605 10.816 3.179 4.181 2.794 10.091 5.184 14.763 2.058 4.043 5.845 6.624 9.941 8.8z" fill="#eee"/><path d="m338.048 498.56c-25.728 8.715-53.301 13.429-81.973 13.44h-.288v-84.533h8.981c6.933 0 13.803 1.963 19.445 5.995 3.819 2.731 6.795 6.261 8.128 12.48 1.387 6.496 1.995 13.856 6.976 18.24 6.613 5.824 18.283 3.808 23.605 10.816 3.179 4.181 2.794 10.091 5.184 14.763 2.059 4.042 5.846 6.623 9.942 8.799z" fill="#dddddf"/></g><g><g><g><path d="m201.078 267.659v43.279c0 5.86-4.751 10.611-10.603 10.611h-29.254c-5.86 0-10.611-4.751-10.611-10.611v-43.279c0-6.969 2.824-13.278 7.394-17.84 4.562-4.57 10.871-7.394 17.84-7.394 13.938 0 25.234 11.296 25.234 25.234z" fill="#eee"/><path d="m201.078 267.659v43.279c0 5.86-4.751 10.611-10.603 10.611h-14.631v-79.125c13.938.001 25.234 11.297 25.234 25.235z" fill="#dddddf"/><path d="m321.683 321.546h29.251c5.859 0 10.608-4.75 10.608-10.608v-43.281c0-13.936-11.298-25.234-25.234-25.234-13.936 0-25.234 11.298-25.234 25.234v43.281c.001 5.859 4.75 10.608 10.609 10.608z" fill="#eee"/><path d="m361.543 267.659v43.279c0 5.86-4.751 10.611-10.603 10.611h-14.631v-79.125c13.938.001 25.234 11.297 25.234 25.235z" fill="#dddddf"/></g><g><path d="m256.075 134.709v145.024c-33.515 0-67.04-5.515-99.168-16.565l-19.328-6.635c1.493-2.976 3.509-5.685 5.984-7.968l10.933-10.112 14.315-13.376c17.696-16.544 30.443-37.675 36.811-61.045l9.323-34.229z" fill="#fff"/><path d="m256.076 256.528v40.73h-113.371c-6.37 0-11.288-5.607-10.458-11.921l1.288-9.788 1.344-10.212c.406-3.09 1.325-6.065 2.699-8.809z" fill="#0092ff"/><path d="m374.581 256.533-19.339 6.635c-32.128 11.051-65.653 16.565-99.168 16.565v-145.024l41.141-4.907 9.322 34.229c6.358 23.371 19.104 44.501 36.8 61.045l14.326 13.376 10.923 10.112c2.486 2.284 4.502 4.993 5.995 7.969z" fill="#eee"/><path d="m369.45 297.259h-113.374v-40.73h118.501c1.374 2.744 2.293 5.719 2.699 8.809l1.344 10.212 1.288 9.788c.83 6.313-4.088 11.921-10.458 11.921z" fill="#0076ff"/><path d="m297.205 129.803v126.731c-22.773 22.56-59.477 22.56-82.261 0v-126.731c0-20.075 4.171-39.936 12.245-58.304l6.816-15.488c1.12-2.549 1.867-5.248 2.208-8.021l.117-.875c11.531-9.291 27.968-9.291 39.499 0l.107.875c.352 2.773 1.099 5.472 2.219 8.021l6.805 15.488c8.075 18.368 12.245 38.229 12.245 58.304z" fill="#eee"/><path d="m297.205 129.803v126.731c-11.381 11.285-26.25 16.917-41.13 16.917v-233.301c6.987 0 13.984 2.315 19.755 6.965l.107.875c.352 2.773 1.099 5.472 2.219 8.021l6.805 15.488c8.074 18.368 12.244 38.229 12.244 58.304z" fill="#dddddf"/><path d="m256.075 24.469v22.645h-19.744l1.973-15.915c5.077-4.49 11.413-6.73 17.771-6.73z" fill="#0092ff"/><path d="m275.829 47.115h-19.755v-22.646c6.347 0 12.704 2.24 17.781 6.731z" fill="#006cff"/><path d="m273.855 31.205h-35.555c.551-4.484 2.737-8.409 5.915-11.217s7.339-4.492 11.862-4.492c9.039.001 16.669 6.742 17.778 15.709z" fill="#3c3b40"/><g><path d="m277.33 104.198c-2.799 0-5.301-1.812-6.098-4.494-.412-1.388-1.011-2.698-1.767-3.899-1.304-2.076-3.079-3.826-5.171-5.105-2.395-1.464-5.21-2.309-8.217-2.309-3.009 0-5.822.844-8.219 2.311-2.092 1.277-3.866 3.029-5.169 5.103-.756 1.201-1.355 2.51-1.767 3.899-.797 2.681-3.299 4.494-6.098 4.494-3.629 0-6.39-2.97-6.39-6.372 0-.605.089-1.225.274-1.845 2.212-7.354 7.313-13.471 13.981-17.021 1.635-.871 3.365-1.588 5.169-2.132 2.603-.783 5.363-1.205 8.219-1.205 2.854 0 5.614.42 8.217 1.205 1.806.542 3.536 1.258 5.171 2.132 6.668 3.55 11.769 9.667 13.981 17.021 1.232 4.095-1.84 8.217-6.116 8.217z" fill="#3c3b40"/><path d="m277.33 104.198c-2.799 0-5.301-1.812-6.098-4.494-.412-1.388-1.011-2.698-1.767-3.899-1.304-2.076-3.079-3.826-5.171-5.105-2.395-1.464-5.21-2.309-8.217-2.309v-12.767c2.854 0 5.614.42 8.217 1.205 1.806.542 3.536 1.258 5.171 2.132 6.668 3.55 11.769 9.667 13.981 17.021 1.232 4.094-1.84 8.216-6.116 8.216z" fill="#313133"/><path d="m242.689 95.806c1.304-2.074 3.077-3.826 5.169-5.103v-13.874c-1.804.544-3.534 1.26-5.169 2.132z" fill="#313133"/><path d="m264.294 76.829v13.872c2.092 1.279 3.868 3.029 5.171 5.105v-16.846c-1.635-.873-3.365-1.59-5.171-2.131z" fill="#2b2b2b"/></g><path d="m278.212 122.263c0 1.793-.724 3.414-1.896 4.594-1.172 1.172-2.793 1.896-4.586 1.896h-31.307c-3.579 0-6.482-2.903-6.482-6.49 0-1.794.724-3.414 1.896-4.586s2.792-1.896 4.586-1.896h31.307c3.58 0 6.482 2.903 6.482 6.482z" fill="#3c3b40"/><path d="m266.878 142.982c0 1.793-.724 3.414-1.896 4.594-1.18 1.172-2.8 1.896-4.586 1.896h-8.637c-3.579 0-6.482-2.903-6.482-6.49 0-1.794.724-3.414 1.896-4.586 1.18-1.172 2.8-1.896 4.586-1.896h8.637c3.579 0 6.482 2.903 6.482 6.482z" fill="#3c3b40"/><path d="m297.209 256.529v31.921c0 4.861-3.941 8.81-8.81 8.81h-64.643c-4.869 0-8.81-3.949-8.81-8.81v-31.921z" fill="#00b9ff"/><path d="m297.209 256.529v31.921c0 4.861-3.941 8.81-8.81 8.81h-32.322v-40.73h41.132z" fill="#0092ff"/></g></g><path d="m266.878 142.982c0 1.793-.724 3.414-1.896 4.594-1.18 1.172-2.8 1.896-4.586 1.896h-4.318v-12.972h4.318c3.579 0 6.482 2.903 6.482 6.482z" fill="#2b2b2b"/><path d="m278.212 122.263c0 1.793-.724 3.414-1.896 4.594-1.172 1.172-2.793 1.896-4.586 1.896h-15.653v-12.971h15.653c3.58-.001 6.482 2.902 6.482 6.481z" fill="#2b2b2b"/><path d="m273.855 31.205h-17.777v-15.708c9.038 0 16.668 6.741 17.777 15.708z" fill="#313133"/><g><path d="m265.587 170.475v64.582c0 5.247-4.256 9.51-9.51 9.51-5.255 0-9.51-4.263-9.51-9.51v-64.582c0-5.255 4.255-9.51 9.51-9.51 2.627 0 5.003 1.062 6.725 2.785 1.724 1.723 2.785 4.098 2.785 6.725z" fill="#0092ff"/><path d="m265.587 170.475v64.582c0 5.247-4.256 9.51-9.51 9.51v-83.603c2.627 0 5.003 1.062 6.725 2.785 1.724 1.724 2.785 4.099 2.785 6.726z" fill="#006cff"/></g></g><g><g><path d="m194.802 358.646c-4.169 6.971-8.338 13.936-12.072 21.152l-2.355 4.554c-.949 1.836-2.74 2.757-4.532 2.757s-3.583-.921-4.532-2.757l-2.355-4.554c-3.734-7.216-7.903-14.181-12.072-21.152-5.335-8.907-3.834-20.761 4.493-28.017 4.113-3.583 9.287-5.374 14.466-5.374s10.353 1.792 14.466 5.374c8.327 7.255 9.828 19.109 4.493 28.017z" fill="#ff3d3b"/><path d="m194.802 358.646c-4.169 6.971-8.338 13.936-12.072 21.152l-2.355 4.554c-.949 1.836-2.74 2.757-4.532 2.757v-61.854c5.179 0 10.353 1.792 14.466 5.374 8.327 7.255 9.828 19.109 4.493 28.017z" fill="#ea005c"/><path d="m188.535 351.429c-2.796 4.66-5.587 9.326-8.081 14.153l-1.574 3.047c-.636 1.228-1.836 1.847-3.036 1.847s-2.4-.62-3.036-1.847l-1.574-3.047c-2.495-4.828-5.285-9.493-8.081-14.153-3.566-5.96-2.567-13.897 3.008-18.752 2.751-2.4 6.217-3.594 9.683-3.594s6.932 1.194 9.683 3.594c5.575 4.856 6.574 12.792 3.008 18.752z" fill="#ea005c"/><path d="m181.798 345.692c-1.311 2.193-2.623 4.381-3.795 6.641l-.737 1.434c-.296.575-.859.865-1.423.865s-1.127-.29-1.423-.865l-.737-1.434c-1.172-2.26-2.484-4.448-3.795-6.641-1.674-2.796-1.2-6.519 1.412-8.796 1.295-1.127 2.919-1.685 4.543-1.685s3.248.558 4.543 1.685c2.612 2.278 3.087 6 1.412 8.796z" fill="#fdd425"/></g><path d="m188.535 351.429c-2.796 4.66-5.587 9.326-8.081 14.153l-1.574 3.047c-.636 1.228-1.836 1.847-3.036 1.847v-41.394c3.466 0 6.932 1.194 9.683 3.594 5.575 4.857 6.574 12.793 3.008 18.753z" fill="#bf005e"/><path d="m181.798 345.692c-1.311 2.193-2.623 4.381-3.795 6.641l-.737 1.434c-.296.575-.859.865-1.423.865v-19.422c1.624 0 3.248.558 4.543 1.685 2.612 2.279 3.087 6.001 1.412 8.797z" fill="#ff9a01"/></g><g><g><path d="m354.411 358.646c-4.169 6.971-8.338 13.936-12.072 21.152l-2.355 4.554c-.949 1.836-2.74 2.757-4.532 2.757s-3.583-.921-4.532-2.757l-2.355-4.554c-3.734-7.216-7.903-14.181-12.072-21.152-5.335-8.907-3.834-20.761 4.493-28.017 4.113-3.583 9.287-5.374 14.466-5.374s10.353 1.792 14.466 5.374c8.328 7.255 9.829 19.109 4.493 28.017z" fill="#ff3d3b"/><path d="m354.411 358.646c-4.169 6.971-8.338 13.936-12.072 21.152l-2.355 4.554c-.949 1.836-2.74 2.757-4.532 2.757v-61.854c5.179 0 10.353 1.792 14.466 5.374 8.328 7.255 9.829 19.109 4.493 28.017z" fill="#ea005c"/><path d="m348.144 351.429c-2.796 4.66-5.587 9.326-8.081 14.153l-1.574 3.047c-.636 1.228-1.836 1.847-3.036 1.847s-2.4-.62-3.036-1.847l-1.574-3.047c-2.495-4.828-5.285-9.493-8.081-14.153-3.566-5.96-2.567-13.897 3.008-18.752 2.752-2.4 6.217-3.594 9.683-3.594s6.931 1.194 9.683 3.594c5.575 4.856 6.574 12.792 3.008 18.752z" fill="#ea005c"/><path d="m341.408 345.692c-1.311 2.193-2.623 4.381-3.795 6.641l-.737 1.434c-.296.575-.859.865-1.423.865s-1.127-.29-1.423-.865l-.737-1.434c-1.172-2.26-2.483-4.448-3.795-6.641-1.674-2.796-1.2-6.519 1.412-8.796 1.295-1.127 2.919-1.685 4.543-1.685s3.248.558 4.543 1.685c2.612 2.278 3.086 6 1.412 8.796z" fill="#fdd425"/></g><path d="m348.144 351.429c-2.796 4.66-5.587 9.326-8.081 14.153l-1.574 3.047c-.636 1.228-1.836 1.847-3.036 1.847v-41.394c3.466 0 6.931 1.194 9.683 3.594 5.575 4.857 6.574 12.793 3.008 18.753z" fill="#bf005e"/><path d="m341.408 345.692c-1.311 2.193-2.623 4.381-3.795 6.641l-.737 1.434c-.296.575-.859.865-1.423.865v-19.422c1.624 0 3.248.558 4.543 1.685 2.612 2.279 3.086 6.001 1.412 8.797z" fill="#ff9a01"/></g><g><g><g><g><path d="m25.66 226.02h1.626c7.203 0 13.042-5.839 13.042-13.042v-1.626h9.297v1.626c0 7.203 5.839 13.042 13.042 13.042h1.626v9.297h-1.626c-7.203 0-13.042 5.839-13.042 13.042v1.626h-9.297v-1.626c0-7.203-5.839-13.042-13.042-13.042h-1.626z" fill="#fff"/></g></g><g><g><path d="m115.805 98.544h1.626c7.203 0 13.042-5.839 13.042-13.042v-1.626h9.297v1.626c0 7.203 5.839 13.042 13.042 13.042h1.626v9.297h-1.626c-7.203 0-13.042 5.839-13.042 13.042v1.626h-9.297v-1.626c0-7.203-5.839-13.042-13.042-13.042h-1.626z" fill="#fff"/></g></g><g><g><path d="m75.618 368.122h1.626c7.203 0 13.042-5.839 13.042-13.042v-1.626h9.297v1.626c0 7.203 5.839 13.042 13.042 13.042h1.626v9.297h-1.626c-7.203 0-13.042 5.839-13.042 13.042v1.626h-9.297v-1.626c0-7.203-5.839-13.042-13.042-13.042h-1.626z" fill="#fff"/></g></g></g><g><g><g><path d="m486.34 226.02h-1.626c-7.203 0-13.042-5.839-13.042-13.042v-1.626h-9.297v1.626c0 7.203-5.839 13.042-13.042 13.042h-1.626v9.297h1.626c7.203 0 13.042 5.839 13.042 13.042v1.626h9.297v-1.626c0-7.203 5.839-13.042 13.042-13.042h1.626z" fill="#fff"/></g></g><g><g><path d="m396.195 98.544h-1.626c-7.203 0-13.042-5.839-13.042-13.042v-1.626h-9.297v1.626c0 7.203-5.839 13.042-13.042 13.042h-1.626v9.297h1.626c7.203 0 13.042 5.839 13.042 13.042v1.626h9.297v-1.626c0-7.203 5.839-13.042 13.042-13.042h1.626z" fill="#fff"/></g></g><g><g><path d="m436.382 368.122h-1.626c-7.203 0-13.042-5.839-13.042-13.042v-1.626h-9.297v1.626c0 7.203-5.839 13.042-13.042 13.042h-1.626v9.297h1.626c7.203 0 13.042 5.839 13.042 13.042v1.626h9.297v-1.626c0-7.203 5.839-13.042 13.042-13.042h1.626z" fill="#fff"/></g></g></g></g></g></g></svg>